<svg xmlns="http://www.w3.org/2000/svg" xmlns:xlink="http://www.w3.org/1999/xlink" version="1.1" width="512" height="512" x="0" y="0" viewBox="0 0 599.828 599.828" style="enable-background:new 0 0 512 512" xml:space="preserve" class=""><g><path d="M77.397 464.383c-21.342 0-38.699 17.356-38.699 38.699 0 21.342 17.356 38.699 38.699 38.699s38.699-17.356 38.699-38.699c0-21.342-17.356-38.699-38.699-38.699zm0 58.048c-10.671 0-19.349-8.678-19.349-19.349s8.678-19.349 19.349-19.349 19.349 8.678 19.349 19.349c.001 10.671-8.678 19.349-19.349 19.349z" fill="#0096d3" opacity="1" data-original="#000000"/><path d="M599.828 484.865V462.11l-1.006-2.032c-16.476-33.155-49.457-53.743-86.066-53.743-3.212 0-6.337.397-9.481.706 17.511-33.329 27.224-70.161 28.521-108.076 22.203-4.373 39.008-23.964 39.008-47.425C570.805 112.845 457.969 0 319.264 0c-23.432 0-43.004 16.766-47.415 38.921C137.167 43.536 29.024 154.465 29.024 290.24c0 48.828 13.767 95.421 39.908 135.929C30.224 430.406 0 463.271 0 503.082c0 42.675 34.722 77.397 77.397 77.397 27.573 0 53.211-15.005 66.949-38.699h279.83c15.276 34.993 50.047 58.048 88.581 58.048 36.609 0 69.59-20.588 86.066-53.743l1.006-2.032v-22.755l-91.106 10.12-14.173-28.337 14.173-28.337zM93.447 427.562c-15.073-20.491-26.489-42.907-34.055-66.62 9.588-26.489 28.782-56.355 66.891-60.505 2.322 35.38 16.524 67.481 38.728 92.441-16.998 20.259-24.09 44.619-20.646 71.505h-.019c-11.01-19.001-29.721-32.245-50.899-36.821zm187.118-272.768c74.688 0 135.445 60.757 135.445 135.445s-60.757 135.445-135.445 135.445S145.12 364.928 145.12 290.24s60.757-135.446 135.445-135.446zm154.33 144.656c22.252-1.896 41.291-10.681 56.732-26.344l20.994 20.994c-.59 35.903-9.413 70.838-25.715 102.435-35.496 16.65-65.672 15.054-89.955-4.586 21.932-25.047 35.845-57.167 37.944-92.499zM163.976 464.383c-3.444-21.99 1.461-41.408 14.735-57.864 25.086 22 57.274 35.961 92.664 38.05a94.29 94.29 0 0 0 3.88 19.814zm131.778 0a72.504 72.504 0 0 1-5.031-19.862c35.342-2.312 67.423-16.486 92.383-38.641 16.94 14.202 36.783 21.371 58.483 21.371 4.16 0 8.407-.319 12.693-.851-12.848 9.81-23.432 22.648-30.117 37.983zM403.501 64.888l20.481-20.481a231.433 231.433 0 0 1 19.543 11.145l-24.68 24.68 13.68 13.68 27.137-27.147a230.486 230.486 0 0 1 16.698 13.99l-28.492 28.502 13.68 13.68 28.492-28.502a235.743 235.743 0 0 1 13.99 16.698l-27.137 27.147 13.68 13.68 24.68-24.68a232.667 232.667 0 0 1 11.145 19.552l-20.481 20.481 13.68 13.68 15.325-15.325c10.139 25.377 15.924 52.93 16.428 81.76L323.366 19.456c28.84.503 56.403 6.289 81.78 16.428l-15.325 15.325zM301.859 25.299l243.646 243.637c-4.586 6.066-11.416 10.352-19.32 11.377L290.481 44.61c1.036-7.895 5.312-14.725 11.378-19.311zm176.079 234.127c-11.793 11.929-26.238 18.827-43.091 20.636-5.079-77.533-67.374-139.528-145.042-144.152-2.786-31.578-20.065-57.129-49.853-74.234a232.785 232.785 0 0 1 36.706-3.531zM209.746 69.125c36.899 13.322 57.148 35.787 60.447 66.842-35.274 2.351-67.278 16.524-92.19 38.641-24.274-20.346-54.526-26.209-87.643-17.298 28.832-41.127 70.607-72.521 119.386-88.185zm-135.493 114.8c35.487-16.631 65.662-15.034 89.926 4.586-21.932 25.057-35.845 57.168-37.944 92.49-31.578 2.786-57.139 20.075-74.243 49.873-2.332-13.293-3.618-26.857-3.618-40.634-.001-38.302 9.384-74.437 25.879-106.315zm398.663 319.157 24.525 49.06 80.938-8.988c-13.951 23.18-38.544 37.325-65.623 37.325-32.671 0-61.956-20.742-72.889-51.595l-2.283-6.453H132.407l-2.622 5.515c-9.597 20.162-30.156 33.184-52.388 33.184-32.013 0-58.048-26.035-58.048-58.048s26.034-58.048 58.048-58.048c22.232 0 42.791 13.022 52.379 33.184l2.632 5.515h305.177l2.274-6.453c10.942-30.852 40.227-51.595 72.898-51.595 27.079 0 51.672 14.144 65.623 37.325l-80.938-8.988z" fill="#0096d3" opacity="1" data-original="#000000"/><path d="M241.866 290.24c0 7.159 2.08 13.777 5.486 19.533l-22 22 13.68 13.68 22-22c5.756 3.405 12.374 5.486 19.533 5.486s13.777-2.08 19.533-5.486l21.981 21.981 13.68-13.68-21.981-21.99c3.405-5.747 5.486-12.364 5.486-19.523 0-7.15-2.08-13.777-5.486-19.533l22-22-13.68-13.68-21.991 22c-5.766-3.396-12.383-5.486-19.543-5.486s-13.777 2.08-19.533 5.486l-22.02-22.01-13.68 13.68 22.02 22.01c-3.405 5.755-5.485 12.372-5.485 19.532zm38.699-19.35c10.671 0 19.349 8.678 19.349 19.349s-8.678 19.349-19.349 19.349-19.349-8.678-19.349-19.349 8.678-19.349 19.349-19.349z" fill="#0096d3" opacity="1" data-original="#000000"/><path d="M280.565 406.335c64.017 0 116.096-52.079 116.096-116.096s-52.079-116.096-116.096-116.096-116.096 52.079-116.096 116.097 52.079 116.095 116.096 116.095zm0-212.842c53.346 0 96.747 43.4 96.747 96.747s-43.4 96.747-96.747 96.747-96.747-43.4-96.747-96.747 43.401-96.747 96.747-96.747z" fill="#0096d3" opacity="1" data-original="#000000"/></g></svg>