<svg xmlns="http://www.w3.org/2000/svg" xmlns:xlink="http://www.w3.org/1999/xlink" fill="#00a650" height="800px" width="800px" version="1.1" id="Capa_1" viewBox="0 0 199.271 199.271" xml:space="preserve">

<g id="SVGRepo_bgCarrier" stroke-width="0"/>

<g id="SVGRepo_tracerCarrier" stroke-linecap="round" stroke-linejoin="round"/>

<g id="SVGRepo_iconCarrier"> <path d="M161.93,159.103c-20.59,0-37.341-16.751-37.341-37.341c0-14.536,8.35-27.159,20.505-33.325 c-0.409-3.099-0.627-5.864-0.743-7.954l-44.026,34.482c1.134,2.01,1.781,4.329,1.781,6.797c0,6.974-5.171,12.763-11.879,13.735 v5.669h3.904c1.104,0,2,0.896,2,2s-0.896,2-2,2h-12.52c-1.104,0-2-0.896-2-2s0.896-2,2-2h4.615v-5.669 c-0.422-0.061-0.838-0.142-1.246-0.24l-14.373-1.764c-4.888,14.264-18.431,24.545-34.331,24.545C16.273,158.039,0,141.765,0,121.762 c0-20.003,16.273-36.277,36.276-36.277c6.562,0,12.722,1.751,18.038,4.81L70.004,66.12l-2.354-8.031h-3.384 c-4.047,0-7.34-3.292-7.34-7.34s3.293-7.34,7.34-7.34c4.057,0,8.079,0.609,11.955,1.811l9.509,2.948 c2.138,0.664,3.572,2.611,3.572,4.847c0,2.798-2.276,5.074-5.075,5.074H71.817l1.749,5.964h72.64c1.104,0,1.999,0.894,2,1.998 l0.012,10.427c-0.001,0.001-0.001,0.002,0,0.003c0,0.081,0.014,4.452,0.711,10.275c4.05-1.509,8.432-2.334,13.001-2.334 c20.59,0,37.341,16.751,37.341,37.34C199.271,142.352,182.52,159.103,161.93,159.103z M145.739,92.623 c-10.222,5.702-17.15,16.626-17.15,29.139c0,18.384,14.957,33.341,33.341,33.341s33.341-14.957,33.341-33.341 c0-18.384-14.957-33.34-33.341-33.34c-4.391,0-8.585,0.853-12.428,2.402c0.214,1.311,0.463,2.655,0.755,4.01 c3.579-1.557,7.527-2.421,11.673-2.421c16.184,0,29.35,13.166,29.35,29.35s-13.166,29.35-29.35,29.35s-29.35-13.166-29.35-29.35 c0-10.561,5.606-19.836,14-25.007C146.258,95.362,145.979,93.977,145.739,92.623z M36.276,89.485C18.479,89.485,4,103.964,4,121.762 c0,17.798,14.479,32.277,32.276,32.277c13.849,0,25.689-8.769,30.262-21.044l-2.996-0.368c-4.328,10.82-14.919,18.484-27.266,18.484 c-16.184,0-29.35-13.166-29.35-29.35s13.166-29.35,29.35-29.35c5.172,0,10.036,1.345,14.261,3.703l1.597-2.46 C47.447,91,42.036,89.485,36.276,89.485z M147.651,100.826c-6.68,4.569-11.071,12.25-11.071,20.936 c0,13.978,11.372,25.35,25.35,25.35s25.35-11.372,25.35-25.35s-11.372-25.35-25.35-25.35c-3.822,0-7.449,0.85-10.702,2.372 c0.425,1.52,0.91,3.021,1.463,4.468c4.391,11.482,10.501,16.956,10.562,17.01c0.829,0.73,0.908,1.994,0.178,2.823 c-0.729,0.829-1.993,0.909-2.822,0.178c-0.28-0.247-6.915-6.189-11.653-18.582C148.473,103.42,148.04,102.129,147.651,100.826z M36.276,96.412c-13.978,0-25.35,11.372-25.35,25.35s11.372,25.35,25.35,25.35c10.29,0,19.167-6.163,23.136-14.991l-23.268-2.854 c-4.077-0.071-7.373-3.41-7.373-7.504s3.296-7.433,7.373-7.504l2.844-0.349l9.365-14.431C44.762,97.523,40.646,96.412,36.276,96.412 z M90.227,122.874v8.563c4.492-0.927,7.879-4.913,7.879-9.675c0-1.536-0.353-2.992-0.981-4.29L90.227,122.874z M85.717,131.318 l0.51,0.063v-7.619h-7.676C79.31,127.436,82.114,130.371,85.717,131.318z M71.701,129.598l5.577,0.684 c-1.447-1.855-2.435-4.087-2.787-6.521h-1.992C72.391,125.753,72.12,127.704,71.701,129.598z M64.785,128.75l2.925,0.359 c0.405-1.734,0.67-3.519,0.782-5.347h-2.934C65.443,125.468,65.182,127.134,64.785,128.75z M42.461,126.01l18.321,2.248 c0.386-1.452,0.645-2.956,0.766-4.497H43.512C43.287,124.575,42.928,125.333,42.461,126.01z M36.273,125.267 c0.009,0,0.017,0,0.024,0c1.182-0.007,2.226-0.602,2.856-1.505h-2.878c-0.733,0-1.407-0.401-1.758-1.045 c-0.35-0.645-0.319-1.428,0.08-2.043l1.567-2.414c-1.882,0.059-3.395,1.607-3.395,3.503c0,1.924,1.559,3.491,3.48,3.505 C36.259,125.267,36.267,125.267,36.273,125.267z M78.551,119.762h7.182l-1.993-6.8C81.113,114.307,79.164,116.793,78.551,119.762z M72.499,119.762h1.992c0.353-2.434,1.34-4.665,2.787-6.521l-5.577,0.684C72.12,115.819,72.391,117.771,72.499,119.762z M65.559,119.762h2.934c-0.112-1.828-0.377-3.613-0.782-5.347l-2.925,0.359C65.182,116.389,65.443,118.055,65.559,119.762z M43.512,119.762h18.036c-0.121-1.541-0.38-3.044-0.766-4.497l-18.321,2.248C42.928,118.191,43.287,118.949,43.512,119.762z M87.617,111.973l1.875,6.396l5.198-4.071c-1.706-1.479-3.923-2.385-6.347-2.414L87.617,111.973z M51.706,101.661l-7.536,11.612 l15.242-1.87C57.681,107.552,55.016,104.208,51.706,101.661z M88.261,107.883c3.734,0.009,7.127,1.5,9.619,3.916l46.337-36.292 l-0.009-7.454H74.739l11.712,39.943c0.582-0.074,1.176-0.111,1.778-0.113C88.239,107.883,88.25,107.883,88.261,107.883z M53.889,98.298c4.271,3.214,7.64,7.565,9.653,12.599l2.996-0.368c-2.198-5.902-6.078-10.996-11.053-14.691L53.889,98.298z M57.666,92.478c5.938,4.349,10.511,10.458,12.941,17.552l11.846-1.454L71.488,71.181L57.666,92.478z M64.266,47.409 c-1.842,0-3.34,1.498-3.34,3.34s1.498,3.34,3.34,3.34h19.961c0.593,0,1.075-0.482,1.075-1.074c0-0.473-0.305-0.886-0.757-1.026 l-9.508-2.948C71.544,47.958,67.92,47.409,64.266,47.409z M146.206,63.791c-1.104,0-2-0.896-2-2V54.51 c0-5.703-4.64-10.342-10.342-10.342h-4.706c-1.104,0-2-0.896-2-2s0.896-2,2-2h4.706c7.908,0,14.342,6.434,14.342,14.342v7.281 C148.206,62.895,147.311,63.791,146.206,63.791z" fill="#0096d3"/> </g>

</svg>